<?xml version="1.0" encoding="UTF-8"?> <svg xmlns="http://www.w3.org/2000/svg" width="150" height="40" viewBox="0 0 150 40" fill="none"><g clip-path="url(#clip0_5007_1676)"><path d="M150 0.869141H0V39.1296H150V0.869141Z" fill="black"></path><path d="M149.018 1.85156H112.091V38.1427H149.018V1.85156Z" fill="white"></path><path d="M74.8365 1.85156H38.2727V38.2457H74.8365V1.85156Z" fill="white"></path><path d="M66.9839 28.5916H52.8347V6.08008H45.957V33.6453H66.9839V28.5916Z" fill="black"></path><path d="M29.2862 28.6287V33.6824H8.93188V6.11719H29.0135V11.1709H15.8035V16.9639H28.4075V22.0176H15.8035V28.6226H29.2801L29.2862 28.6287Z" fill="white"></path><path d="M93.3732 16.3027L102.208 6.08008H108.237V33.6453H101.366V16.436L93.8822 25.0831H92.8702L85.4654 16.436V33.6453H78.5938V6.08008H84.6473L93.3914 16.3027H93.3732Z" fill="white"></path><path d="M119.187 29.8517C122.126 32.6513 125.931 34.0511 130.603 34.0511C135.275 34.0511 139.014 32.6452 141.965 29.8336C144.916 27.0219 146.389 23.7012 146.389 19.8715C146.389 16.0418 144.934 12.7878 142.02 9.93981C139.111 7.09784 135.299 5.67383 130.603 5.67383C125.907 5.67383 122.071 7.09178 119.157 9.93375C116.242 12.7697 114.781 16.0843 114.781 19.8715C114.781 23.6588 116.248 27.0522 119.187 29.8517ZM124.265 13.7271C125.865 12.1819 127.979 11.4062 130.609 11.4062C133.239 11.4062 135.324 12.1819 136.923 13.7271C138.517 15.2783 139.317 17.3204 139.317 19.8594C139.317 22.3984 138.517 24.4284 136.923 25.9857C135.33 27.543 133.221 28.3187 130.609 28.3187C127.998 28.3187 125.871 27.543 124.265 25.9857C122.665 24.4284 121.859 22.3863 121.859 19.8594C121.859 17.3325 122.659 15.2723 124.265 13.7271Z" fill="black"></path></g><defs><clipPath id="clip0_5007_1676"><rect width="150" height="38.2605" fill="white" transform="translate(0 0.869141)"></rect></clipPath></defs></svg> 