<?xml version="1.0" encoding="UTF-8"?> <svg xmlns="http://www.w3.org/2000/svg" width="47" height="48" viewBox="0 0 47 48" fill="none"><g id="SVG" clip-path="url(#clip0_2781_23794)"><path id="Vector" fill-rule="evenodd" clip-rule="evenodd" d="M46.5401 24.0008C46.5401 36.8136 36.1529 47.2008 23.3401 47.2008C10.5273 47.2008 0.140137 36.8136 0.140137 24.0008C0.140137 11.188 10.5273 0.800781 23.3401 0.800781C36.1529 0.800781 46.5401 11.188 46.5401 24.0008ZM16.0001 24.0008C16.0001 28.1768 19.4001 31.5776 23.5761 31.5776C25.3891 31.5776 27.1416 30.9257 28.5137 29.7408L31.3809 34.7144C29.1168 36.3716 26.3827 37.2626 23.5769 37.2576C16.2553 37.2576 10.3209 31.3224 10.3209 24.0008C10.3209 16.6792 16.2545 10.7448 23.5769 10.7448C24.4473 10.7448 25.3161 10.8296 26.1705 10.9992L23.5769 16.4232C19.4009 16.4232 16.0001 19.8248 16.0001 24.0008ZM33.3809 18.572H29.4185C29.5249 17.9504 29.9105 17.6024 30.6905 17.208L31.4185 16.8368C32.7225 16.1688 33.4185 15.4128 33.4185 14.1776C33.4185 13.4032 33.1169 12.7904 32.5177 12.3496C31.9193 11.9096 31.2137 11.6912 30.3881 11.6912C29.7493 11.6835 29.1221 11.8623 28.5833 12.2056C28.0401 12.54 27.6369 12.9712 27.3865 13.5096L28.5321 14.6608C28.9777 13.76 29.6225 13.3192 30.4721 13.3192C31.1913 13.3192 31.6321 13.6904 31.6321 14.2056C31.6321 14.6376 31.4185 14.9944 30.5921 15.412L30.1241 15.6392C29.1081 16.1544 28.4025 16.7432 27.9937 17.412C27.5857 18.08 27.3857 18.92 27.3857 19.936V20.2144H33.3809V18.572ZM26.2913 22.108H32.8521L36.1321 27.7872L32.8521 33.4712L29.5721 27.7872H23.0105L26.2905 22.1072L26.2913 22.108Z" fill="white"></path></g><defs><clipPath id="clip0_2781_23794"><rect width="46.4" height="46.4" fill="white" transform="translate(0.140137 0.800781)"></rect></clipPath></defs></svg> 