<?xml version="1.0" encoding="UTF-8"?> <svg xmlns="http://www.w3.org/2000/svg" width="171" height="48" viewBox="0 0 171 48" fill="none"><g id="SVG" clip-path="url(#clip0_2781_23775)"><path id="Vector" d="M0.140137 19.3888H25.1665V10.0176L0.140137 19.3888Z" fill="#DEE2F1"></path><path id="Vector_2" d="M25.1665 10.0176V43.1408L37.0001 5.60156L25.1665 10.0176Z" fill="#D1CCD9"></path><path id="Vector_3" d="M25.1665 19.3867H15.7104L25.1665 43.1099V19.3867Z" fill="white"></path><path id="Vector_4" d="M0.140137 19.3867L18.1449 25.4731L15.7105 19.3867H0.140137Z" fill="#75668D"></path><path id="Vector_5" d="M57.496 34.391C57.3544 34.5318 57.128 34.7014 56.816 34.8998C56.5056 35.0982 56.08 35.3246 55.5712 35.523C55.0616 35.7206 54.4384 35.919 53.6744 36.0606C52.9384 36.2022 52.0888 36.287 51.1264 36.287C49.2864 36.287 47.6728 35.975 46.3136 35.4094C44.9552 34.815 43.8504 33.9934 42.9728 32.9182C42.073 31.813 41.417 30.53 41.048 29.1534C40.624 27.7094 40.4248 26.0958 40.4248 24.3686C40.4248 22.6414 40.6512 21.0278 41.1048 19.5558C41.5576 18.0838 42.2088 16.8094 43.1144 15.7342C43.992 14.6582 45.1248 13.8086 46.4552 13.2142C47.7856 12.6198 49.3712 12.3086 51.1832 12.3086C52.0608 12.3086 52.8816 12.3934 53.5896 12.535C54.2968 12.7046 54.948 12.875 55.4856 13.1014C56.024 13.3278 56.4776 13.5542 56.8168 13.7814C57.1848 14.007 57.4392 14.2334 57.6088 14.375C57.8072 14.5454 58.0056 14.7718 58.1472 15.0262C58.2888 15.2814 58.3736 15.5638 58.3736 15.847C58.3736 16.3006 58.204 16.7534 57.864 17.2062C57.5251 17.6632 57.1463 18.0891 56.732 18.479C56.4335 18.1821 56.1217 17.8989 55.7976 17.6302C55.4375 17.3366 55.0486 17.0804 54.6368 16.8654C54.2128 16.639 53.7312 16.4694 53.1928 16.3278C52.6012 16.1741 51.9921 16.0979 51.3808 16.1014C50.2208 16.1014 49.2296 16.3278 48.4368 16.8086C47.6448 17.2902 47.0208 17.8846 46.5408 18.6486C46.0472 19.4385 45.7015 20.3117 45.5208 21.2254C45.3161 22.2032 45.2116 23.1992 45.2088 24.1982C45.2088 25.2734 45.3224 26.2926 45.5208 27.2838C45.7028 28.2149 46.0686 29.1004 46.5968 29.8886C47.099 30.6455 47.7795 31.2675 48.5784 31.6998C49.3992 32.1534 50.3904 32.3798 51.608 32.3798C52.2005 32.3816 52.7906 32.3054 53.3632 32.1534C53.9008 31.983 54.3816 31.7854 54.7784 31.5582C55.2024 31.3318 55.5424 31.0774 55.8544 30.851C56.1656 30.5958 56.42 30.3694 56.6184 30.1998C56.76 30.3694 56.9016 30.5678 57.1 30.7942C57.2976 31.0206 57.468 31.2758 57.6096 31.5022C57.7792 31.7566 57.8928 32.0118 58.0336 32.2662C58.1472 32.5214 58.204 32.7478 58.204 32.9462C58.204 33.2574 58.1472 33.4838 58.0344 33.7102C57.9208 33.9086 57.7224 34.1342 57.496 34.3902V34.391ZM75.1616 31.7574C75.1616 33.5694 75.416 34.8998 75.9536 35.7206C75.5296 35.891 75.1616 36.0038 74.7936 36.0606C74.4256 36.1166 74.0576 36.1742 73.6608 36.1742C72.84 36.1742 72.2176 36.0038 71.7928 35.6926C71.368 35.3806 71.0848 34.9006 70.972 34.3054C70.4624 34.843 69.8112 35.2966 68.9616 35.6646C68.1408 36.0326 67.1216 36.2022 65.9328 36.2022C65.3013 36.2009 64.6728 36.1151 64.064 35.947C63.447 35.7801 62.8695 35.4915 62.3656 35.0982C61.856 34.7014 61.4592 34.1918 61.12 33.5414C60.808 32.8902 60.6384 32.0974 60.6384 31.163C60.6384 30.003 60.9216 29.0398 61.488 28.3038C62.0536 27.5678 62.7616 27.0014 63.6112 26.5766C64.46 26.1526 65.3952 25.8686 66.3568 25.699C67.257 25.5487 68.1643 25.4445 69.0752 25.387C69.3576 25.3598 69.6128 25.3598 69.896 25.3598H70.632V24.7366C70.632 23.859 70.4056 23.2366 69.924 22.8406C69.4432 22.4718 68.6784 22.2734 67.6312 22.2734C66.64 22.2734 65.7624 22.4438 64.9984 22.755C64.2336 23.067 63.4696 23.435 62.7336 23.859C62.4216 23.463 62.1392 23.0382 61.9688 22.5566C61.7712 22.0758 61.6864 21.7358 61.6864 21.5086C61.6864 21.1982 61.856 20.8862 62.224 20.575C62.592 20.263 63.0728 20.0086 63.696 19.7542C64.3192 19.499 65.0264 19.3294 65.848 19.1598C66.64 19.0182 67.4896 18.9334 68.3952 18.9334C69.6408 18.9334 70.6888 19.0462 71.5376 19.3014C72.3872 19.5558 73.0952 19.9526 73.6328 20.4614C74.1846 21.0106 74.5843 21.6937 74.7928 22.4438C75.02 23.2358 75.1336 24.1702 75.1336 25.2182L75.1616 31.7574ZM70.7456 27.7654H70.264C70.0944 27.7654 69.952 27.7654 69.7824 27.7942C69.2168 27.8502 68.6504 27.907 68.084 27.9926C67.5601 28.0668 67.0527 28.2293 66.5832 28.4734C66.1592 28.6998 65.7912 29.011 65.508 29.3798C65.2248 29.7478 65.0832 30.2286 65.0832 30.795C65.0832 31.4462 65.2528 31.9838 65.6208 32.4366C65.9888 32.8902 66.612 33.1166 67.4896 33.1166C67.9107 33.1176 68.3299 33.0602 68.7352 32.9462C69.1048 32.8474 69.4579 32.6949 69.7832 32.4934C70.0471 32.3315 70.2855 32.1311 70.4904 31.899C70.66 31.6726 70.7456 31.475 70.7456 31.3046V27.7654ZM83.7392 20.9718C84.1072 20.547 84.6736 20.0934 85.4664 19.6406C86.2592 19.1878 87.2216 18.9614 88.4104 18.9614C89.26 18.9614 90.0808 19.103 90.8456 19.3854C91.6096 19.6694 92.2888 20.1502 92.884 20.7734C93.4784 21.4246 93.9592 22.2734 94.2992 23.3214C94.6672 24.3686 94.8368 25.671 94.8368 27.2278C94.8368 29.0118 94.6392 30.5118 94.2144 31.6726C93.7896 32.8326 93.28 33.7678 92.6288 34.419C91.9776 35.0982 91.2416 35.579 90.4488 35.8622C89.6768 36.1401 88.8629 36.2837 88.0424 36.287C87.3912 36.287 86.7968 36.2022 86.316 36.0606C85.8344 35.919 85.4096 35.7486 85.0704 35.551C84.7846 35.4058 84.5182 35.2252 84.2776 35.0134C84.1072 34.843 83.9656 34.7014 83.9376 34.6454V43.1382H79.2384V19.471C79.3512 19.443 79.4928 19.415 79.6624 19.415C79.804 19.3862 79.9744 19.3862 80.144 19.3574C80.3424 19.3574 80.5408 19.3294 80.7952 19.3294C81.56 19.3294 82.2104 19.443 82.7488 19.6974C83.2584 19.9526 83.5976 20.3782 83.7392 20.9718ZM89.968 27.3414C89.968 26.6614 89.9112 26.011 89.7976 25.4158C89.6957 24.8694 89.5046 24.3434 89.232 23.859C88.9768 23.435 88.6088 23.095 88.156 22.8398C87.7032 22.5854 87.1648 22.4718 86.5136 22.4718C85.5512 22.4718 84.872 22.6702 84.504 23.0094C84.136 23.3774 83.9376 23.7742 83.9376 24.227V31.559C84.1072 31.7574 84.4472 31.9558 84.9288 32.2102C85.4096 32.4654 85.948 32.5782 86.5704 32.5782C87.7312 32.5782 88.5808 32.1254 89.1464 31.191C89.6848 30.2854 89.968 29.0118 89.968 27.3414ZM98.4608 33.2862C98.2912 32.8334 98.2056 32.3518 98.1496 31.8422C98.0928 31.3326 98.0928 30.823 98.0928 30.3142V14.3174C98.2624 14.2894 98.4328 14.2614 98.6024 14.2614C98.772 14.2326 98.9416 14.2326 99.112 14.2046C99.2816 14.2046 99.48 14.1766 99.6496 14.1766C100.018 14.1766 100.386 14.2046 100.754 14.2894C101.116 14.3412 101.457 14.4874 101.745 14.7134C102.056 14.9126 102.282 15.195 102.481 15.5638C102.65 15.9318 102.764 16.3846 102.764 16.9502V19.4142H107.605V22.8958H102.792V30.2558C102.792 31.8702 103.443 32.6622 104.746 32.6622C105.057 32.6622 105.368 32.6062 105.651 32.5214C105.934 32.4078 106.19 32.2942 106.416 32.1814C106.629 32.0728 106.828 31.9399 107.01 31.7854C107.18 31.6438 107.294 31.5302 107.378 31.4734C107.718 31.983 108.001 32.4078 108.171 32.7758C108.341 33.1438 108.454 33.4838 108.454 33.8238C108.454 34.135 108.341 34.4182 108.086 34.7006C107.795 35.0218 107.45 35.2901 107.067 35.4934C106.642 35.7486 106.105 35.9462 105.482 36.0878C104.858 36.2294 104.179 36.3142 103.443 36.3142C102.028 36.3142 100.895 36.0318 100.102 35.4934C99.3664 34.899 98.8008 34.1926 98.4608 33.2862ZM119.495 32.8334C120.062 32.8334 120.571 32.7774 121.024 32.635C121.449 32.5222 121.845 32.3518 122.213 32.1822C122.533 32.0141 122.837 31.815 123.118 31.5878C123.374 31.3614 123.6 31.163 123.798 30.9934C124.082 31.3326 124.364 31.7854 124.676 32.3238C124.987 32.8614 125.129 33.315 125.129 33.6542C125.129 34.1638 124.846 34.6166 124.279 35.0414C123.798 35.4094 123.118 35.7214 122.213 36.0038C121.335 36.259 120.288 36.4006 119.098 36.4006C118.023 36.4006 116.947 36.259 115.9 35.9758C114.872 35.703 113.916 35.2103 113.097 34.5318C112.276 33.8518 111.625 32.9182 111.115 31.7574C110.606 30.5974 110.351 29.1254 110.351 27.3694C110.351 25.9254 110.578 24.6798 111.03 23.6326C111.483 22.5846 112.078 21.7078 112.814 21.0278C113.549 20.3491 114.416 19.8289 115.362 19.4998C116.292 19.1842 117.267 19.0216 118.25 19.0182C119.523 19.0182 120.627 19.2158 121.534 19.6126C122.439 20.0086 123.147 20.547 123.714 21.2262C124.278 21.9061 124.692 22.6971 124.93 23.5478C125.186 24.4254 125.298 25.3318 125.298 26.2934V26.775C125.298 26.9734 125.298 27.143 125.27 27.3694C125.27 27.5678 125.242 27.7654 125.242 27.9638C125.242 28.1622 125.214 28.3038 125.186 28.4166H115.022C115.107 29.691 115.503 30.7382 116.211 31.5878C116.89 32.4086 117.994 32.8334 119.495 32.8334ZM121.081 25.8414C121.081 24.7366 120.854 23.831 120.43 23.151C120.005 22.4718 119.24 22.1038 118.136 22.1038C117.174 22.1038 116.438 22.4438 115.871 23.095C115.305 23.7454 115.022 24.6518 115.022 25.8406L121.081 25.8414ZM133.48 21.0566C133.622 20.8582 133.792 20.6318 134.018 20.3766C134.264 20.1068 134.55 19.8776 134.867 19.6974C135.207 19.499 135.575 19.3294 135.971 19.1878C136.368 19.0462 136.793 18.9894 137.274 18.9894C137.557 18.9894 137.84 19.0182 138.151 19.0462C138.462 19.1022 138.746 19.1878 139.001 19.3014C139.255 19.4142 139.482 19.5846 139.652 19.811C139.822 20.0374 139.906 20.2918 139.906 20.603C139.906 21.1126 139.794 21.679 139.538 22.331C139.284 22.9814 139.029 23.547 138.774 24.0006C138.378 23.6886 137.982 23.4342 137.614 23.2646C137.217 23.095 136.764 23.0094 136.226 23.0094C135.518 23.0094 134.924 23.2078 134.442 23.6326C133.962 24.0566 133.706 24.5382 133.706 25.1326V36.287H129.007V19.443C129.121 19.4142 129.262 19.3862 129.432 19.3862C129.574 19.3574 129.743 19.3574 129.913 19.3294C130.083 19.3294 130.31 19.3014 130.564 19.3014C131.3 19.3014 131.951 19.443 132.49 19.7254C132.999 20.0374 133.338 20.4614 133.48 21.0566ZM146.814 21.0566C146.956 20.8582 147.126 20.6318 147.352 20.3766C147.597 20.1066 147.884 19.8773 148.202 19.6974C148.553 19.4935 148.923 19.3229 149.306 19.1878C149.702 19.0462 150.126 18.9894 150.608 18.9894C150.891 18.9894 151.174 19.0182 151.486 19.0462C151.797 19.1022 152.08 19.1878 152.334 19.3014C152.59 19.4142 152.816 19.5846 152.986 19.811C153.156 20.0374 153.241 20.2918 153.241 20.603C153.241 21.1126 153.127 21.679 152.873 22.331C152.618 22.9814 152.363 23.547 152.108 24.0006C151.712 23.6886 151.315 23.4342 150.947 23.2646C150.551 23.095 150.098 23.0094 149.56 23.0094C148.853 23.0094 148.258 23.2078 147.777 23.6326C147.295 24.0566 147.041 24.5382 147.041 25.1326V36.287H142.342V19.443C142.454 19.4142 142.596 19.3862 142.766 19.3862C142.907 19.3574 143.078 19.3574 143.247 19.3294C143.417 19.3294 143.643 19.3014 143.898 19.3014C144.634 19.3014 145.286 19.443 145.823 19.7254C146.333 20.0374 146.673 20.4614 146.814 21.0566ZM169.207 31.7574C169.207 33.5694 169.462 34.8998 170 35.7206C169.575 35.891 169.207 36.0038 168.839 36.0606C168.471 36.1166 168.103 36.1742 167.707 36.1742C166.886 36.1742 166.263 36.0038 165.838 35.6926C165.414 35.3806 165.131 34.9006 165.018 34.3054C164.508 34.843 163.857 35.2966 163.007 35.6646C162.186 36.0326 161.167 36.2022 159.978 36.2022C159.347 36.2009 158.718 36.1151 158.11 35.947C157.493 35.78 156.915 35.4914 156.411 35.0982C155.902 34.7014 155.506 34.1918 155.166 33.5414C154.854 32.8902 154.685 32.0974 154.685 31.163C154.685 30.003 154.967 29.0398 155.534 28.3038C156.1 27.5678 156.808 27.0014 157.657 26.5766C158.506 26.1526 159.441 25.8686 160.403 25.699C161.303 25.5487 162.21 25.4445 163.121 25.387C163.404 25.3598 163.658 25.3598 163.942 25.3598H164.678V24.7366C164.678 23.859 164.451 23.2366 163.97 22.8406C163.489 22.4718 162.725 22.2734 161.677 22.2734C160.686 22.2734 159.809 22.4438 159.044 22.755C158.28 23.067 157.515 23.435 156.779 23.859C156.468 23.463 156.185 23.0382 156.015 22.5566C155.817 22.0758 155.732 21.7358 155.732 21.5086C155.732 21.1982 155.902 20.8862 156.27 20.575C156.638 20.263 157.119 20.0086 157.742 19.7542C158.365 19.499 159.073 19.3294 159.894 19.1598C160.735 19.0092 161.587 18.9334 162.442 18.9334C163.687 18.9334 164.734 19.0462 165.584 19.3014C166.433 19.5558 167.141 19.9526 167.678 20.4614C168.231 21.0104 168.631 21.6935 168.839 22.4438C169.066 23.2358 169.179 24.1702 169.179 25.2182L169.207 31.7574ZM164.791 27.7654H164.31C164.14 27.7654 163.998 27.7654 163.829 27.7942C163.262 27.8502 162.696 27.907 162.13 27.9926C161.606 28.0669 161.099 28.2295 160.63 28.4734C160.211 28.6958 159.844 29.0047 159.554 29.3798C159.27 29.7478 159.129 30.2286 159.129 30.795C159.129 31.4462 159.299 31.9838 159.667 32.4366C160.035 32.8902 160.658 33.1166 161.535 33.1166C161.96 33.1166 162.385 33.0598 162.781 32.9462C163.178 32.8334 163.517 32.6918 163.829 32.4934C164.14 32.295 164.366 32.0974 164.536 31.899C164.706 31.6726 164.791 31.475 164.791 31.3046V27.7654Z" fill="white"></path></g><defs><clipPath id="clip0_2781_23775"><rect width="170.4" height="46.4" fill="white" transform="translate(0.140137 0.800781)"></rect></clipPath></defs></svg> 